<svg width="24" height="24" viewBox="0 0 24 24" fill="none" xmlns="http://www.w3.org/2000/svg">
<path d="M20.25 4.5H18.8957L19.7812 5.20312L19.7087 6H20.25C21.0769 6 21.75 6.67237 21.75 7.5V16.5C21.75 17.3276 21.0769 18 20.25 18H12.75V18.75C12.75 19.1646 12.4146 19.5 12 19.5C11.5854 19.5 11.25 19.1646 11.25 18.75V18H3.75C2.92313 18 2.25 17.3276 2.25 16.5V7.5C2.25 6.67237 2.92313 6 3.75 6H4.44506L4.54688 5.39062L5.4375 4.5H3.75C2.09325 4.5 0.75 5.84325 0.75 7.5V16.5C0.75 18.1568 2.09325 19.5 3.75 19.5H9.88837C10.1989 20.3715 11.0237 21 12 21C12.9763 21 13.8009 20.3715 14.1116 19.5H20.25C21.9068 19.5 23.25 18.1568 23.25 16.5V7.5C23.25 5.84325 21.9068 4.5 20.25 4.5Z" fill="#FEFEFE" fill-opacity="0.7"/>
<path d="M9.75 7.5H6.75V6H9.75V7.5Z" fill="#FEFEFE"/>
<path d="M9.75 10.5H6.75V9H9.75V10.5Z" fill="#FEFEFE"/>
<path d="M9.75 13.5H6.75V12H9.75V13.5Z" fill="#FEFEFE"/>
<path d="M17.25 7.5H14.25V6H17.25V7.5Z" fill="#FEFEFE"/>
<path d="M17.25 10.5H14.25V9H17.25V10.5Z" fill="#FEFEFE"/>
<path d="M17.25 13.5H14.25V12H17.25V13.5Z" fill="#FEFEFE"/>
<path d="M15.75 3C14.4536 3 13.1653 3.34725 12 4.00631C10.8347 3.34725 9.54638 3 8.25 3C6.67088 3 5.09175 3.48787 3.75 4.46625C3.75 7.51744 3.75 16.6406 3.75 16.6875C3.75 17.1021 4.08544 17.4375 4.5 17.4375C4.57406 17.4375 7.0935 16.5338 8.25 16.5338C9.44156 16.5338 10.623 16.8384 11.7114 17.3979L11.7238 17.3906L11.7246 17.3891C11.8102 17.4229 11.9018 17.4448 12 17.4448C12.0982 17.4448 12.1898 17.4229 12.2754 17.3891L12.2762 17.3906L12.2886 17.3979C13.377 16.8384 14.5584 16.5338 15.75 16.5338C16.9065 16.5338 19.4259 17.4375 19.5 17.4375C19.9146 17.4375 20.25 17.1021 20.25 16.6875C20.25 16.6406 20.25 7.51762 20.25 4.46625C18.9082 3.48787 17.3291 3 15.75 3ZM5.25 15.5333V5.28656C6.16406 4.77244 7.188 4.50431 8.25 4.50431C9.312 4.50431 10.3359 4.77244 11.25 5.28656C11.25 7.70213 11.25 13.1177 11.25 15.5331C10.2941 15.1991 9.28425 15.0291 8.25 15.0291C7.21575 15.0291 6.20588 15.1993 5.25 15.5333ZM18.75 15.5333C17.7941 15.1993 16.7842 15.0292 15.75 15.0292C14.7158 15.0292 13.7059 15.1991 12.75 15.5333C12.75 13.1177 12.75 7.70212 12.75 5.28675C13.6641 4.77262 14.688 4.5045 15.75 4.5045C16.812 4.5045 17.8359 4.77262 18.75 5.28675V15.5333Z" fill="#FEFEFE"/>
</svg>
