<svg viewBox="0 0 846.66 846.66" xml:space="preserve" xmlns="http://www.w3.org/2000/svg" shape-rendering="geometricPrecision" text-rendering="geometricPrecision" image-rendering="optimizeQuality" fill-rule="evenodd" clip-rule="evenodd"><path d="M57.69 10.3h586.02c11.4 0 20.65 9.24 20.65 20.64v86.43h124.61c11.4 0 20.64 9.24 20.64 20.64v677.71c0 11.4-9.24 20.64-20.64 20.64H202.95c-11.4 0-20.65-9.24-20.65-20.64v-86.43H57.69c-11.4 0-20.64-9.24-20.64-20.64V30.94c0-11.4 9.24-20.64 20.64-20.64zm606.67 148.36v549.99c0 11.4-9.25 20.64-20.65 20.64H223.6v65.78h544.72V158.66H664.36zM288.69 335.35c-5.31 26.52-45.63 18.46-40.33-8.06 5.33-26.52 20.73-49.83 42.89-65.22-1.02-1.32-2-2.68-2.93-4.07-8.05-12.01-12.75-26.38-12.75-41.76 0-41.49 33.64-75.13 75.13-75.13 41.49 0 75.13 33.64 75.13 75.13 0 16.64-5.53 32.68-15.68 45.83 22.17 15.38 37.57 38.7 42.89 65.22 5.3 26.52-35.02 34.58-40.32 8.06-4.36-21.68-20.08-39.68-40.91-47.03a74.294 74.294 0 0 1-21.11 3.06c-7.1 0-14.29-1.03-21.11-3.06-20.83 7.35-36.55 25.34-40.9 47.03zm62.01-85.26c18.93 0 33.84-15.08 33.84-33.85 0-18.69-15.15-33.84-33.84-33.84-18.69 0-33.84 15.15-33.84 33.84 0 18.93 15.09 33.85 33.84 33.85zM199.22 448.98c-27.16 0-27.16-41.29 0-41.29h302.97c27.16 0 27.16 41.29 0 41.29H199.22zm0 149.5c-27.16 0-27.16-41.29 0-41.29h302.97c27.16 0 27.16 41.29 0 41.29H199.22zm0-74.75c-27.16 0-27.16-41.29 0-41.29h302.97c27.16 0 27.16 41.29 0 41.29H199.22zM623.06 51.59H78.34V688h544.72V51.59z" fill="#fefefe" fill-rule="nonzero" class="fill-000000"></path></svg>