<svg width="19" height="19" viewBox="0 0 19 19" fill="none" xmlns="http://www.w3.org/2000/svg">
<path d="M16.4765 5.58116L15.9124 5.01709L10.6874 10.2421C10.0343 10.8952 8.93584 10.8952 8.28272 10.2421L3.05772 5.04678L2.49365 5.61084L6.38271 9.4999L2.49365 13.389L3.05772 13.953L6.94678 10.064L7.71865 10.8358C8.19365 11.3108 8.81709 11.578 9.47022 11.578C10.1233 11.578 10.7468 11.3108 11.2218 10.8358L11.9937 10.064L15.8827 13.953L16.4468 13.389L12.5577 9.4999L16.4765 5.58116Z" fill="#CECECE"/>
<path d="M15.378 14.9624H3.65142C2.9686 14.9624 2.40454 14.3984 2.40454 13.7155V5.34368C2.40454 4.66086 2.9686 4.0968 3.65142 4.0968H15.378C16.0608 4.0968 16.6249 4.66086 16.6249 5.34368V13.7155C16.6249 14.3984 16.0608 14.9624 15.378 14.9624ZM3.62173 4.89836C3.38423 4.89836 3.2061 5.07649 3.2061 5.31399V13.6859C3.2061 13.9234 3.38423 14.1015 3.62173 14.1015H15.3483C15.5858 14.1015 15.7639 13.9234 15.7639 13.6859V5.31399C15.7639 5.07649 15.5858 4.89836 15.3483 4.89836H3.62173Z" fill="#CECECE"/>
</svg>
