<svg width="20" height="20" viewBox="0 0 32 32" xml:space="preserve" xmlns="http://www.w3.org/2000/svg" enable-background="new 0 0 32 32"><g id="Layer_1"><path d="M17.89 15.91c-.62 1.05-1.4 1.99-2.29 2.7l-.12.09c-1.04.81-2.22 1.3-3.48 1.3s-2.44-.49-3.48-1.3l-.12-.09c-2.33-1.87-3.9-5.28-3.9-8.11C4.5 6.36 7.86 3 12 3c.69 0 1.36.09 2 .28V13h3.57A5.017 5.017 0 0 1 15 15.58c.61.27 1.29.42 2 .42.3 0 .6-.03.89-.09z" fill="none" stroke="#fefefe" stroke-width="2" stroke-linecap="round" stroke-linejoin="round" stroke-miterlimit="10" class="stroke-434345"></path><path d="M23 29v2H1v-2c0-4.82 3.09-8.91 7.4-10.39l.12.09c1.04.81 2.22 1.3 3.48 1.3s2.44-.49 3.48-1.3l.12-.09C19.91 20.09 23 24.18 23 29zM31 1v12h-9.42a4.985 4.985 0 0 1-3.69 2.91c-.29.06-.59.09-.89.09-.71 0-1.39-.15-2-.42A5.017 5.017 0 0 0 17.57 13H14V1h17z" fill="none" stroke="#fefefe" stroke-width="2" stroke-linecap="round" stroke-linejoin="round" stroke-miterlimit="10" class="stroke-434345"></path></g></svg>