<svg width="24" height="24" viewBox="0 0 24 24" fill="none" xmlns="http://www.w3.org/2000/svg">
<path d="M12.0002 5L2.50024 9.99999L12.0002 15L17.5002 12.2187C17.5002 12.2187 17.5002 14.7396 17.5002 16C17.5002 18 19.5002 18 19.5002 18V17C19.5002 17 18.5002 16.9428 18.5002 16C18.5002 14.5 18.5002 11.6562 18.5002 11.6562L21.5002 9.99999L12.0002 5ZM7.50024 14V16C7.50024 16.4967 7.82533 17.1625 8.50024 17.5L12.0002 19L15.0002 17.5C15.6752 17.1625 16.5474 16.4945 16.5002 16V14L12.0002 16.1875L7.50024 14Z" fill="#FEFEFE"/>
</svg>
