<svg width="19" height="19" viewBox="0 0 19 19" fill="none" xmlns="http://www.w3.org/2000/svg">
<path d="M13.8542 19H5.14591C4.0546 19 3.16675 18.1121 3.16675 17.0208V1.97917C3.16675 0.887854 4.0546 0 5.14591 0H13.8542C14.9456 0 15.8334 0.887854 15.8334 1.97917V17.0208C15.8334 18.1121 14.9456 19 13.8542 19ZM5.14591 0.791667C4.49121 0.791667 3.95841 1.32446 3.95841 1.97917V17.0208C3.95841 17.6755 4.49121 18.2083 5.14591 18.2083H13.8542C14.509 18.2083 15.0417 17.6755 15.0417 17.0208V1.97917C15.0417 1.32446 14.509 0.791667 13.8542 0.791667H5.14591Z" fill="#CECECE"/>
<path d="M15.4376 3.95829H3.56258C3.34369 3.95829 3.16675 3.78096 3.16675 3.56246C3.16675 3.34396 3.34369 3.16663 3.56258 3.16663H15.4376C15.6565 3.16663 15.8334 3.34396 15.8334 3.56246C15.8334 3.78096 15.6565 3.95829 15.4376 3.95829Z" fill="#CECECE"/>
<path d="M15.4376 15.8333H3.56258C3.34369 15.8333 3.16675 15.656 3.16675 15.4375C3.16675 15.219 3.34369 15.0416 3.56258 15.0416H15.4376C15.6565 15.0416 15.8334 15.219 15.8334 15.4375C15.8334 15.656 15.6565 15.8333 15.4376 15.8333Z" fill="#CECECE"/>
<path d="M9.50016 16.2291C9.06316 16.2291 8.7085 16.5838 8.7085 17.0208C8.7085 17.4578 9.06316 17.8125 9.50016 17.8125C9.93716 17.8125 10.2918 17.4578 10.2918 17.0208C10.2918 16.5838 9.93716 16.2291 9.50016 16.2291Z" fill="#CECECE"/>
<path d="M11.4792 2.37504H7.52083C7.30194 2.37504 7.125 2.19771 7.125 1.97921C7.125 1.76071 7.30194 1.58337 7.52083 1.58337H11.4792C11.6981 1.58337 11.875 1.76071 11.875 1.97921C11.875 2.19771 11.6981 2.37504 11.4792 2.37504Z" fill="#CECECE"/>
</svg>
