<svg width="24" height="24" viewBox="0 0 24 24" fill="none" xmlns="http://www.w3.org/2000/svg">
<path d="M18.081 12.678C18.081 13.2118 17.869 13.7237 17.4915 14.1011C17.1141 14.4785 16.6022 14.6905 16.0685 14.6905C15.5348 14.6905 15.0229 14.4785 14.6455 14.1011C14.268 13.7237 14.056 13.2118 14.056 12.678V12.6562H12.656V14.7125C12.656 14.8865 12.5869 15.0534 12.4638 15.1765C12.3407 15.2996 12.1738 15.3687 11.9998 15.3687H11.3216C11.1359 15.3687 10.9579 15.4425 10.8266 15.5737C10.6953 15.705 10.6216 15.8831 10.6216 16.0687C10.6216 16.2544 10.6953 16.4324 10.8266 16.5637C10.9579 16.695 11.1359 16.7687 11.3216 16.7687H11.9998C12.1738 16.7687 12.3407 16.8379 12.4638 16.9609C12.5869 17.084 12.656 17.2509 12.656 17.425V20.1374H14.7122V20.8156C14.7122 21.1753 14.8551 21.5202 15.1095 21.7746C15.3638 22.0289 15.7088 22.1718 16.0685 22.1718C16.4282 22.1718 16.7732 22.0289 17.0275 21.7746C17.2818 21.5202 17.4247 21.1753 17.4247 20.8156V20.1374H20.1372V17.4249H19.4591C19.0998 17.4243 18.7555 17.2811 18.5017 17.0268C18.2479 16.7725 18.1054 16.4279 18.1054 16.0687C18.1054 15.7094 18.2479 15.3648 18.5017 15.1105C18.7555 14.8563 19.0998 14.7131 19.4591 14.7124H20.1372V12.6562H18.081V12.678Z" fill="#FEFEFE"/>
<path d="M9.30907 16.0687C9.30968 15.5352 9.5219 15.0236 9.89919 14.6464C10.2765 14.2691 10.788 14.0569 11.3216 14.0562H11.3435V12.6563H9.2871C9.11305 12.6563 8.94614 12.5871 8.82307 12.464C8.7 12.341 8.63086 12.1741 8.63085 12V11.3218C8.63085 11.1362 8.5571 10.9581 8.42583 10.8268C8.29455 10.6956 8.11651 10.6218 7.93086 10.6218C7.74521 10.6218 7.56717 10.6956 7.43589 10.8268C7.30462 10.9581 7.23087 11.1362 7.23087 11.3218V12C7.23086 12.1741 7.16172 12.341 7.03865 12.464C6.91558 12.5871 6.74867 12.6563 6.57462 12.6563H3.86219V14.7124H3.18405C2.82479 14.7131 2.48047 14.8563 2.22667 15.1106C1.97287 15.3648 1.83032 15.7094 1.83032 16.0687C1.83032 16.428 1.97287 16.7725 2.22667 17.0268C2.48047 17.2811 2.82479 17.4243 3.18405 17.4249H3.86219V20.1374H6.57471V19.4593C6.57537 19.1001 6.71856 18.7557 6.97284 18.5019C7.22711 18.2481 7.5717 18.1056 7.93097 18.1056C8.29023 18.1056 8.63482 18.2481 8.8891 18.5019C9.14337 18.7557 9.28656 19.1001 9.28723 19.4593V20.1374H11.3435V18.0812H11.3216C10.788 18.0806 10.2765 17.8684 9.8992 17.4911C9.52191 17.1138 9.30968 16.6023 9.30907 16.0687V16.0687Z" fill="#FEFEFE"/>
<path d="M20.8153 6.57493H20.1372V3.86243H17.4247V4.54055C17.4247 4.90025 17.2818 5.24522 17.0275 5.49957C16.7731 5.75392 16.4282 5.89681 16.0685 5.89681C15.7088 5.89681 15.3638 5.75392 15.1094 5.49957C14.8551 5.24522 14.7122 4.90025 14.7122 4.54055V3.86243H12.656V5.91861H12.6778C13.2116 5.91861 13.7235 6.13065 14.1009 6.50808C14.4783 6.88551 14.6904 7.39742 14.6904 7.93119C14.6904 8.46496 14.4783 8.97687 14.1009 9.3543C13.7235 9.73173 13.2116 9.94377 12.6778 9.94377H12.656V11.3437H14.7122C14.8863 11.3438 15.0532 11.4129 15.1763 11.536C15.2993 11.659 15.3685 11.826 15.3685 12V12.678C15.3685 12.8637 15.4422 13.0417 15.5735 13.173C15.7048 13.3043 15.8828 13.378 16.0685 13.378C16.2541 13.378 16.4322 13.3043 16.5634 13.173C16.6947 13.0417 16.7685 12.8637 16.7685 12.678V12C16.7685 11.8259 16.8376 11.659 16.9607 11.536C17.0838 11.4129 17.2507 11.3437 17.4247 11.3437H20.1372V9.28743H20.8153C21.1746 9.28676 21.5189 9.14358 21.7727 8.8893C22.0265 8.63503 22.169 8.29044 22.169 7.93118C22.169 7.57191 22.0265 7.22733 21.7727 6.97305C21.5189 6.71878 21.1746 6.5756 20.8153 6.57493H20.8153Z" fill="#FEFEFE"/>
<path d="M5.91827 11.3218C5.91827 10.788 6.1303 10.2762 6.50772 9.89874C6.88513 9.52132 7.39702 9.30929 7.93076 9.30929C8.46451 9.30929 8.97639 9.52132 9.35381 9.89874C9.73122 10.2762 9.94325 10.788 9.94325 11.3218V11.3437H11.3434V9.28751C11.3434 9.11346 11.4126 8.94655 11.5356 8.82348C11.6587 8.70041 11.8256 8.63127 11.9997 8.63126H12.6777C12.8634 8.63126 13.0414 8.5575 13.1727 8.42621C13.304 8.29492 13.3778 8.11685 13.3778 7.93118C13.3778 7.74551 13.304 7.56744 13.1727 7.43615C13.0414 7.30486 12.8634 7.2311 12.6777 7.2311H11.9996C11.8256 7.23109 11.6587 7.16195 11.5356 7.03888C11.4125 6.91581 11.3434 6.7489 11.3434 6.57485V3.86242H9.28708V3.18431C9.28641 2.82504 9.14323 2.48072 8.88895 2.22692C8.63468 1.97311 8.29009 1.83057 7.93082 1.83057C7.57156 1.83057 7.22697 1.97311 6.97269 2.22692C6.71842 2.48072 6.57523 2.82504 6.57456 3.18431V3.86242H3.86206V6.57492H4.54021C4.89947 6.57559 5.24379 6.71877 5.49759 6.97305C5.75139 7.22732 5.89394 7.57191 5.89394 7.93117C5.89394 8.29044 5.75139 8.63502 5.49759 8.8893C5.24379 9.14357 4.89947 9.28676 4.54021 9.28742H3.86206V11.3437H5.91829L5.91827 11.3218Z" fill="#FEFEFE"/>
</svg>
