<svg viewBox="0 0 200 200" xml:space="preserve" xmlns="http://www.w3.org/2000/svg"><g fill="#fefefe" class="fill-5e889e"><path d="M167.353 105.032 147.73 65.686a4.093 4.093 0 0 0-.89-1.179 3.717 3.717 0 0 0-1.233-.743l-23.01-8.27a14.671 14.671 0 0 0-5.107-.869 14.703 14.703 0 0 0-5.089.969l-17.459 6.66a37.257 37.257 0 0 0-3.652 1.625c-.402.208-.797.433-1.19.654a32.435 32.435 0 0 0-4.13-1.878 31.597 31.597 0 0 0-13.809-1.902l-11.746 1.008a3.585 3.585 0 0 0-1.509.485c-.482.284-.88.667-1.193 1.11l-26.448 37.651a4.227 4.227 0 0 0-.747 2.798 4.148 4.148 0 0 0 1.197 2.61l11.504 11.401a9.264 9.264 0 0 0-1.123 3.84 9.29 9.29 0 0 0 2.299 6.781 9.293 9.293 0 0 0 6.423 3.166c.133.009.268.009.403.014-1.023 3.307-.186 7.063 2.479 9.585a9.296 9.296 0 0 0 5.813 2.531c-1.4 3.47-.643 7.608 2.218 10.315a9.307 9.307 0 0 0 6.432 2.563c2.504 0 4.84-.978 6.604-2.744.656 4.238 4.177 7.617 8.63 7.908.205.014.415.023.62.023a9.259 9.259 0 0 0 3.242-.593 9.585 9.585 0 0 0 5.731 1.627c2.582-.108 4.898-1.247 6.63-3.029l-6.327-6.313c.015-.146.042-.286.048-.437a9.329 9.329 0 0 0-.457-3.555l12.949 12.916c1.634.665 3.412.998 5.264.923 3.706-.151 7.007-1.901 9.345-4.609l1.296-1.503c.12-.142.212-.302.292-.474l-19.937-19.882c-.514-.509-.555-1.356-.099-1.889.457-.53 1.249-.548 1.759-.039l23.711 23.645c1.292.453 2.675.674 4.112.615 3.258-.133 6.165-1.672 8.22-4.057l3.131-3.624a4.658 4.658 0 0 0 1.106-3.19l-20.807-20.744c-.508-.51-.554-1.359-.098-1.888.46-.531 1.25-.549 1.759-.04l20.905 20.845a9 9 0 0 0 2.685.304c2.671-.108 5.047-1.368 6.729-3.321l.841-.974c1.683-1.949 2.675-4.589 2.574-7.46-.102-2.87-1.272-5.42-3.086-7.23l-5.581-5.564 1.41 1.404 15.09-13.626a4.086 4.086 0 0 0 1.276-2.331 4.307 4.307 0 0 0-.377-2.673zM51.08 127.569a5.273 5.273 0 0 1-3.646-1.798 5.263 5.263 0 0 1-1.304-3.85 5.317 5.317 0 0 1 5.647-4.952 5.282 5.282 0 0 1 3.646 1.799 5.283 5.283 0 0 1 1.307 3.851c-.194 2.901-2.715 5.146-5.65 4.95zm9.047 12.15a5.286 5.286 0 0 1-3.649-1.451c-2.101-1.986-2.215-5.333-.265-7.449.101-.105 2.173-2.297 3.167-3.343l.522-.555a5.267 5.267 0 0 1 3.858-1.66c1.364 0 2.661.517 3.649 1.456a5.265 5.265 0 0 1 1.66 3.711 5.27 5.27 0 0 1-1.451 3.792l-1.478 1.563-1.002 1.057c-.055.062-.116.124-.169.182l-.663.696c-.101.109-.202.218-.306.324a5.257 5.257 0 0 1-3.873 1.677zm11.857 11.226a5.26 5.26 0 0 1-3.823 1.624 5.28 5.28 0 0 1-3.65-1.455c-2.1-1.986-2.215-5.332-.271-7.438.046-.05 1.263-1.338 2.642-2.793v-.001l1.024-1.081c1.793-1.898 2.381-2.515 2.579-2.73a.89.89 0 0 0 .069-.068l.004-.003c.173-.187.274-.291.277-.294a5.265 5.265 0 0 1 3.859-1.661c1.364 0 2.658.516 3.649 1.454a5.276 5.276 0 0 1 1.658 3.71 5.279 5.279 0 0 1-1.455 3.802l-6.562 6.934zm11.676 6.8a5.319 5.319 0 0 1-4.951-5.648c.183-2.785 2.504-4.964 5.29-4.964a5.32 5.32 0 0 1 5.309 5.658c-.192 2.899-2.709 5.147-5.648 4.954zm64.925-36.851-41.334-41.21.466-1.177a2.259 2.259 0 0 0-.143-1.949c-.354-.608-.946-.962-1.566-.995l-3.072-.184-3.356-.199-.255 3.978c-.003.083-.668 9.129-5.281 17.302-4.729 8.387-10.995 11.279-11.95 11.465-1.067.207-2.186.404-3.116.404-.639 0-1.131-.09-1.552-.283l-1.569-.727c-.658-.305-1.16-.865-1.425-1.579a3.041 3.041 0 0 1 0-2.129l15.721-34.502 2.673-1.761 1.077-.41h-.002l19.758-7.536a11.113 11.113 0 0 1 3.864-.733l.11-.001c1.282 0 2.552.222 3.768.66l23.011 8.27 19.625 39.345-15.452 13.951zM170.949 40.557l-15.534 7.745a9.752 9.752 0 0 0-4.902 5.641 9.76 9.76 0 0 0 .521 7.457l20.339 40.775a9.722 9.722 0 0 0 5.643 4.9 9.724 9.724 0 0 0 7.453-.521L200 98.805l-29.051-58.248zm13.48 58.272a3.741 3.741 0 0 1 0-7.484 3.742 3.742 0 1 1 0 7.484zM0 89.914l14.202 9.977a9.72 9.72 0 0 0 7.293 1.628 9.721 9.721 0 0 0 6.307-4.004l26.193-37.286a9.727 9.727 0 0 0 1.631-7.293 9.745 9.745 0 0 0-4.005-6.311L37.417 36.65 0 89.914zM12.25 88a3.743 3.743 0 1 1 7.402 1.115A3.743 3.743 0 0 1 12.25 88z"></path></g></svg>